<svg width="44" height="36" viewBox="0 0 44 36" fill="none" xmlns="http://www.w3.org/2000/svg">
<path id="Exclude" fill-rule="evenodd" clip-rule="evenodd" d="M4.83634 0C2.1653 0 0 2.16531 0 4.83634V30.4193C0 33.0903 2.1653 35.2556 4.83633 35.2556H38.4331C41.1042 35.2556 43.2695 33.0903 43.2695 30.4193V4.83634C43.2695 2.1653 41.1042 0 38.4331 0H4.83634ZM8.29723 13.251V27.6738H13.2065V13.251H8.29723ZM8.88497 10.8003C9.4074 11.1947 10.0335 11.3919 10.7634 11.3919C11.4933 11.3919 12.1156 11.1947 12.6303 10.8003C13.1528 10.3997 13.414 9.92078 13.414 9.36365C13.414 8.81278 13.1528 8.34016 12.6303 7.94579C12.1156 7.54516 11.4933 7.34484 10.7634 7.34484C10.0335 7.34484 9.4074 7.54516 8.88497 7.94579C8.37022 8.34016 8.11285 8.81278 8.11285 9.36365C8.11285 9.92078 8.37022 10.3997 8.88497 10.8003ZM17.2314 8.44345V27.6738H27.315C29.0821 27.6738 30.5687 27.4422 31.7749 26.979C32.9811 26.5157 33.8915 25.8866 34.5061 25.0916C35.1284 24.2903 35.4396 23.3795 35.4396 22.3592C35.4396 21.4139 35.1937 20.6001 34.702 19.9178C34.2103 19.2292 33.5688 18.694 32.7775 18.3122C31.9938 17.9303 31.1526 17.7237 30.2537 17.6924V17.5046C31.0757 17.3544 31.8056 17.1009 32.4433 16.7441C33.0886 16.381 33.5957 15.9177 33.9645 15.3544C34.3332 14.7847 34.5176 14.1243 34.5176 13.3731C34.5176 12.4091 34.2257 11.5577 33.6418 10.8191C33.0579 10.0742 32.1859 9.49198 31.0258 9.07257C29.8657 8.65316 28.4175 8.44345 26.6812 8.44345H17.2314ZM26.2894 24.3498H22.2213V19.2417H26.4046C27.2036 19.2417 27.8912 19.3576 28.4674 19.5892C29.0513 19.8208 29.5008 20.14 29.8158 20.5469C30.1308 20.9538 30.2883 21.4233 30.2883 21.9554C30.2883 22.6815 29.9694 23.2637 29.3318 23.7019C28.6941 24.1338 27.68 24.3498 26.2894 24.3498ZM25.9206 16.4905H22.2213V11.7299H26.0128C27.1191 11.7299 27.9719 11.9427 28.5712 12.3684C29.1781 12.7941 29.4816 13.3543 29.4816 14.0492C29.4816 14.5562 29.3241 14.9913 29.0091 15.3544C28.7018 15.7174 28.2792 15.9991 27.7414 16.1994C27.2113 16.3935 26.6044 16.4905 25.9206 16.4905Z" fill="#063dbe"/>
</svg>
